<svg width="1021" height="1103" viewBox="0 0 1021 1103" fill="none" xmlns="http://www.w3.org/2000/svg">
<path opacity="0.5" d="M318.103 37.6942C198.414 138.217 179.867 328.298 98.8061 468.527C70.5882 517.322 34.1269 560.992 15.1036 615.123C-28.5707 739.026 31.5376 879.572 111.99 977.981C150.354 1024.93 195.164 1067.94 249.381 1087.72C291.074 1102.94 335.778 1103.57 379.664 1103.97L1148.52 1111.9C1234.37 1112.77 1329.75 1109.62 1391.47 1043.21C1434 997.478 1451.28 930.692 1465.95 866.944C1483.97 788.613 1500.3 703.546 1472.26 628.94C1440.24 543.582 1359.26 495.21 1308.95 421.555C1227.31 302.223 1229.19 121.731 1125.22 26.4664C1076.68 -17.9959 1012.64 -35.4321 950.231 -44.1502C832.577 -60.6089 721.132 -29.5408 605.592 -33.8734C506.829 -37.572 400.035 -31.1259 318.103 37.6942Z" fill="#E7ECFF"/>
</svg>
